<svg xmlns="http://www.w3.org/2000/svg" x="0px" y="0px" width="202.77px" height="40.41px" viewBox="0 0 202.77 40.41" enable-background="new 0 0 202.77 40.41">
  <path fill="#fff" d="M48.72,18.67c-0.47,0.23-1.52,0.58-2.86,0.58c-3,0-4.95-2.04-4.95-5.08c0-3.07,2.09-5.31,5.34-5.31c1.07,0,2.01,0.27,2.51,0.53l-0.41,1.38c-0.43-0.23-1.11-0.47-2.1-0.47c-2.28,0-3.51,1.71-3.51,3.76c0,2.3,1.48,3.72,3.45,3.72c1.03,0,1.71-0.25,2.22-0.47L48.72,18.67L48.72,18.67z"/>
  <path fill="#fff" d="M51.24,14.06c0,2.18,1.23,3.83,3,3.83c1.73,0,3.02-1.62,3.02-3.87c0-1.69-0.84-3.81-2.98-3.81C52.17,10.21,51.24,12.19,51.24,14.06L51.24,14.06z M59.11,13.96c0,3.68-2.57,5.29-4.95,5.29c-2.67,0-4.76-1.98-4.76-5.12c0-3.31,2.2-5.27,4.93-5.27C57.18,8.86,59.11,10.93,59.11,13.96L59.11,13.96z"/>
  <path fill="#fff" d="M60.8,11.76c0-1.05-0.04-1.87-0.08-2.7h1.58l0.08,1.63h0.06c0.56-0.95,1.48-1.83,3.14-1.83c1.34,0,2.36,0.82,2.79,2h0.04c0.31-0.58,0.72-0.99,1.13-1.3c0.6-0.45,1.23-0.7,2.18-0.7c1.34,0,3.29,0.86,3.29,4.32v5.84h-1.77V13.4c0-1.93-0.72-3.06-2.16-3.06c-1.05,0-1.83,0.76-2.16,1.62c-0.08,0.27-0.14,0.58-0.14,0.91v6.15h-1.77v-5.97c0-1.58-0.7-2.71-2.08-2.71c-1.11,0-1.95,0.9-2.24,1.81c-0.1,0.25-0.15,0.58-0.15,0.89v5.99H60.8V11.76L60.8,11.76z"/>
  <path fill="#fff" d="M77.34,11.76c0-1.05-0.04-1.87-0.08-2.7h1.58l0.08,1.63h0.06c0.56-0.95,1.48-1.83,3.15-1.83c1.33,0,2.36,0.82,2.79,2h0.04c0.31-0.58,0.72-0.99,1.13-1.3c0.6-0.45,1.23-0.7,2.18-0.7c1.34,0,3.29,0.86,3.29,4.32v5.84h-1.77V13.4c0-1.93-0.72-3.06-2.16-3.06c-1.05,0-1.83,0.76-2.16,1.62c-0.08,0.27-0.14,0.58-0.14,0.91v6.15h-1.77v-5.97c0-1.58-0.7-2.71-2.07-2.71c-1.11,0-1.95,0.9-2.24,1.81c-0.1,0.25-0.14,0.58-0.14,0.89v5.99h-1.77V11.76L77.34,11.76z"/>
  <path fill="#fff" d="M95.01,14.06c0,2.18,1.23,3.83,3,3.83c1.73,0,3.02-1.62,3.02-3.87c0-1.69-0.84-3.81-2.98-3.81C95.94,10.21,95.01,12.19,95.01,14.06L95.01,14.06z M102.88,13.96c0,3.68-2.57,5.29-4.95,5.29c-2.67,0-4.77-1.98-4.77-5.12c0-3.31,2.2-5.27,4.93-5.27C100.95,8.86,102.88,10.93,102.88,13.96L102.88,13.96z"/>
  <path fill="#fff" d="M104.57,11.76c0-1.05-0.02-1.87-0.08-2.7h1.6l0.1,1.65h0.04c0.49-0.93,1.64-1.85,3.29-1.85c1.38,0,3.51,0.82,3.51,4.24v5.93h-1.81v-5.74c0-1.61-0.6-2.94-2.3-2.94c-1.17,0-2.1,0.84-2.42,1.85c-0.08,0.23-0.12,0.53-0.12,0.84v5.99h-1.81V11.76L104.57,11.76z"/>
  <path fill="#fff" d="M115.52,19.02v-8.13h-1.36V9h1.36V8.57c0-1.3,0.35-2.59,1.21-3.41c0.74-0.7,1.73-0.97,2.61-0.97c0.68,0,1.21,0.13,1.6,0.25l-0.16,1.95c-0.29-0.1-0.62-0.18-1.09-0.18c-1.25,0-1.66,1.05-1.66,2.28V9h2.18v1.89h-2.16v8.13H115.52L115.52,19.02z"/>
  <polygon fill="#fff" points="121.97,5.37 124.5,4.41 124.5,19.02 121.97,19.02 121.97,5.37"/>
  <path fill="#fff" d="M128.84,14.02c0,1.93,0.91,3.4,2.34,3.4c1.35,0,2.3-1.4,2.3-3.43c0-1.57-0.66-3.38-2.28-3.38C129.52,10.6,128.84,12.35,128.84,14.02L128.84,14.02zM135.93,13.91c0,3.68-2.43,5.33-4.83,5.33c-2.65,0-4.71-1.93-4.71-5.16c0-3.29,2.03-5.31,4.87-5.31C134.06,8.77,135.93,10.87,135.93,13.91L135.93,13.91z"/>
  <path fill="#fff" d="M139.17,14.02c0,1.93,0.91,3.4,2.34,3.4c1.35,0,2.3-1.4,2.3-3.43c0-1.57-0.66-3.38-2.28-3.38C139.85,10.6,139.17,12.35,139.17,14.02L139.17,14.02zM146.26,13.91c0,3.68-2.43,5.33-4.83,5.33c-2.65,0-4.71-1.93-4.71-5.16c0-3.29,2.03-5.31,4.87-5.31C144.39,8.77,146.26,10.87,146.26,13.91L146.26,13.91z"/>
  <path fill="#fff" d="M147.83,12.46c0-1.36-0.02-2.35-0.09-3.23h2.33l0.11,1.89h0.06c0.53-1.4,1.78-2.12,2.95-2.12c0.26,0,0.42,0.02,0.64,0.06v2.37c-0.24-0.04-0.48-0.06-0.81-0.06c-1.27,0-2.18,0.76-2.42,1.91c-0.04,0.22-0.07,0.49-0.07,0.76v5.21h-2.71V12.46L147.83,12.46z"/>
  <path fill="#fff" d="M164.67,18.67c-0.47,0.23-1.52,0.58-2.86,0.58c-3,0-4.95-2.04-4.95-5.08c0-3.06,2.1-5.31,5.34-5.31c1.07,0,2.01,0.27,2.51,0.53l-0.41,1.38c-0.43-0.23-1.11-0.47-2.1-0.47c-2.28,0-3.51,1.71-3.51,3.76c0,2.3,1.48,3.72,3.45,3.72c1.03,0,1.71-0.25,2.22-0.47L164.67,18.67L164.67,18.67z"/>
  <path fill="#fff" d="M167.2,14.06c0,2.18,1.23,3.83,3,3.83c1.73,0,3.02-1.63,3.02-3.87c0-1.69-0.84-3.81-2.98-3.81C168.12,10.21,167.2,12.19,167.2,14.06L167.2,14.06z M175.07,13.96c0,3.68-2.57,5.29-4.95,5.29c-2.67,0-4.77-1.98-4.77-5.12c0-3.31,2.2-5.27,4.93-5.27C173.14,8.85,175.07,10.93,175.07,13.96L175.07,13.96z"/>
  <path fill="#fff" d="M176.75,11.75c0-1.05-0.04-1.87-0.08-2.69h1.58l0.08,1.63h0.06c0.55-0.95,1.48-1.83,3.14-1.83c1.34,0,2.36,0.82,2.8,1.99h0.04c0.31-0.58,0.72-0.99,1.13-1.3c0.59-0.45,1.23-0.7,2.18-0.7c1.33,0,3.29,0.86,3.29,4.32v5.84h-1.77V13.4c0-1.93-0.72-3.06-2.16-3.06c-1.05,0-1.83,0.76-2.16,1.62c-0.08,0.26-0.14,0.58-0.14,0.91v6.15h-1.77v-5.96c0-1.58-0.7-2.71-2.07-2.71c-1.11,0-1.95,0.9-2.24,1.81c-0.1,0.25-0.14,0.58-0.14,0.89v5.99h-1.77V11.75L176.75,11.75z"/>
  <path fill="#fff" d="M154.31,19.24c0.84,0,1.37-0.61,1.37-1.45c0-0.86-0.55-1.46-1.35-1.46c-0.79,0-1.37,0.62-1.37,1.46C152.96,18.6,153.47,19.24,154.31,19.24L154.31,19.24z"/>
  <path fill="#fff" d="M48.72,18.68c-0.47,0.23-1.52,0.58-2.86,0.58c-3,0-4.95-2.04-4.95-5.08c0-3.07,2.1-5.31,5.34-5.31c1.07,0,2.01,0.27,2.51,0.53l-0.41,1.38c-0.43-0.23-1.11-0.47-2.1-0.47c-2.28,0-3.51,1.71-3.51,3.76c0,2.3,1.48,3.72,3.45,3.72c1.03,0,1.71-0.25,2.22-0.47L48.72,18.68L48.72,18.68z"/>
  <path fill="#fff" d="M51.24,14.07c0,2.18,1.23,3.83,3,3.83c1.73,0,3.02-1.62,3.02-3.87c0-1.69-0.84-3.81-2.98-3.81C52.17,10.23,51.24,12.2,51.24,14.07L51.24,14.07z M59.12,13.97c0,3.68-2.57,5.29-4.95,5.29c-2.67,0-4.77-1.97-4.77-5.12c0-3.31,2.2-5.27,4.93-5.27C57.18,8.87,59.12,10.95,59.12,13.97L59.12,13.97z"/>
  <path fill="#fff" d="M60.8,11.77c0-1.05-0.04-1.87-0.08-2.7h1.58l0.08,1.63h0.06c0.55-0.95,1.48-1.83,3.14-1.83c1.34,0,2.36,0.82,2.8,2h0.04c0.31-0.58,0.72-0.99,1.13-1.3c0.6-0.45,1.23-0.7,2.18-0.7c1.34,0,3.29,0.86,3.29,4.32v5.84h-1.77v-5.62c0-1.93-0.72-3.07-2.16-3.07c-1.05,0-1.83,0.76-2.16,1.63c-0.08,0.27-0.14,0.58-0.14,0.91v6.15h-1.77v-5.96c0-1.58-0.7-2.72-2.07-2.72c-1.11,0-1.95,0.91-2.24,1.81c-0.1,0.25-0.15,0.58-0.15,0.88v5.99H60.8V11.77L60.8,11.77z"/>
  <path fill="#fff" d="M77.34,11.77c0-1.05-0.04-1.87-0.08-2.7h1.58l0.08,1.63h0.06c0.56-0.95,1.48-1.83,3.15-1.83c1.33,0,2.36,0.82,2.79,2h0.04c0.31-0.58,0.72-0.99,1.13-1.3c0.6-0.45,1.23-0.7,2.18-0.7c1.34,0,3.29,0.86,3.29,4.32v5.84h-1.77v-5.62c0-1.93-0.72-3.07-2.16-3.07c-1.05,0-1.83,0.76-2.16,1.63c-0.08,0.27-0.14,0.58-0.14,0.91v6.15h-1.77v-5.96c0-1.58-0.7-2.72-2.08-2.72c-1.11,0-1.95,0.91-2.24,1.81c-0.1,0.25-0.14,0.58-0.14,0.88v5.99h-1.77V11.77L77.34,11.77z"/>
  <path fill="#fff" d="M95.01,14.07c0,2.18,1.23,3.83,3,3.83c1.73,0,3.02-1.62,3.02-3.87c0-1.69-0.84-3.81-2.98-3.81C95.94,10.23,95.01,12.2,95.01,14.07L95.01,14.07z M102.89,13.97c0,3.68-2.57,5.29-4.95,5.29c-2.67,0-4.77-1.97-4.77-5.12c0-3.31,2.2-5.27,4.93-5.27C100.95,8.87,102.89,10.95,102.89,13.97L102.89,13.97z"/>
  <path fill="#fff" d="M104.57,11.77c0-1.05-0.02-1.87-0.08-2.7h1.6l0.1,1.64h0.04c0.49-0.93,1.65-1.85,3.29-1.85c1.37,0,3.51,0.82,3.51,4.24v5.92h-1.81v-5.74c0-1.61-0.6-2.94-2.3-2.94c-1.17,0-2.09,0.84-2.42,1.85c-0.08,0.23-0.12,0.54-0.12,0.84v5.99h-1.81V11.77L104.57,11.77z"/>
  <path fill="#fff" d="M115.52,19.03V10.9h-1.36V9.01h1.36V8.58c0-1.3,0.35-2.59,1.21-3.41c0.74-0.7,1.72-0.97,2.61-0.97c0.68,0,1.21,0.12,1.6,0.25l-0.16,1.95c-0.29-0.1-0.62-0.18-1.09-0.18c-1.25,0-1.66,1.05-1.66,2.28v0.51h2.18v1.89h-2.16v8.13H115.52L115.52,19.03z"/>
  <polygon fill="#fff" points="121.97,5.38 124.5,4.42 124.5,19.03 121.97,19.03 121.97,5.38"/>
  <path fill="#fff" d="M128.84,14.03c0,1.93,0.91,3.39,2.34,3.39c1.35,0,2.3-1.4,2.3-3.43c0-1.57-0.66-3.38-2.28-3.38C129.52,10.62,128.84,12.37,128.84,14.03L128.84,14.03z M135.93,13.93c0,3.68-2.43,5.33-4.83,5.33c-2.65,0-4.71-1.93-4.71-5.16c0-3.29,2.03-5.31,4.87-5.31C134.06,8.79,135.93,10.88,135.93,13.93L135.93,13.93z"/>
  <path fill="#fff" d="M139.18,14.03c0,1.93,0.91,3.39,2.34,3.39c1.35,0,2.3-1.4,2.3-3.43c0-1.57-0.66-3.38-2.28-3.38C139.85,10.62,139.18,12.37,139.18,14.03L139.18,14.03z M146.27,13.93c0,3.68-2.44,5.33-4.83,5.33c-2.65,0-4.71-1.93-4.71-5.16c0-3.29,2.03-5.31,4.87-5.31C144.39,8.79,146.27,10.88,146.27,13.93L146.27,13.93z"/>
  <path fill="#fff" d="M147.83,12.47c0-1.36-0.02-2.35-0.09-3.23h2.33l0.11,1.89h0.06c0.53-1.4,1.78-2.12,2.95-2.12c0.26,0,0.42,0.02,0.64,0.06v2.36c-0.24-0.04-0.48-0.06-0.81-0.06c-1.28,0-2.18,0.76-2.42,1.91c-0.04,0.22-0.06,0.49-0.06,0.76v5.2h-2.71V12.47L147.83,12.47z"/>
  <path fill="#fff" d="M164.68,18.68c-0.47,0.23-1.52,0.58-2.86,0.58c-3,0-4.95-2.04-4.95-5.08c0-3.07,2.1-5.31,5.34-5.31c1.07,0,2.01,0.27,2.5,0.54l-0.41,1.38c-0.43-0.23-1.11-0.47-2.09-0.47c-2.28,0-3.52,1.7-3.52,3.76c0,2.3,1.48,3.72,3.45,3.72c1.03,0,1.71-0.25,2.22-0.47L164.68,18.68L164.68,18.68z"/>
  <path fill="#fff" d="M167.2,14.07c0,2.18,1.23,3.83,3,3.83c1.73,0,3.02-1.62,3.02-3.87c0-1.69-0.84-3.81-2.98-3.81C168.13,10.23,167.2,12.2,167.2,14.07L167.2,14.07z M175.07,13.97c0,3.68-2.57,5.29-4.95,5.29c-2.67,0-4.77-1.98-4.77-5.12c0-3.31,2.2-5.27,4.93-5.27C173.14,8.87,175.07,10.95,175.07,13.97L175.07,13.97z"/>
  <path fill="#fff" d="M176.76,11.77c0-1.05-0.04-1.87-0.08-2.7h1.58l0.08,1.63h0.06c0.55-0.95,1.48-1.83,3.14-1.83c1.33,0,2.36,0.82,2.79,1.99h0.04c0.31-0.57,0.72-0.99,1.13-1.3c0.6-0.45,1.23-0.7,2.18-0.7c1.34,0,3.29,0.86,3.29,4.32v5.84h-1.77v-5.62c0-1.93-0.72-3.07-2.16-3.07c-1.05,0-1.83,0.76-2.16,1.63c-0.08,0.27-0.14,0.58-0.14,0.91v6.15h-1.77v-5.96c0-1.58-0.7-2.72-2.07-2.72c-1.11,0-1.95,0.91-2.24,1.81c-0.1,0.25-0.14,0.57-0.14,0.88v5.99h-1.77V11.77L176.76,11.77z"/>
  <path fill="#fff" d="M154.31,19.26c0.84,0,1.37-0.61,1.37-1.45c0-0.86-0.55-1.46-1.35-1.46c-0.79,0-1.37,0.62-1.37,1.46C152.96,18.61,153.47,19.26,154.31,19.26L154.31,19.26z"/>
  <path fill="#F6911F" d="M13.46,10.49c0.54,0.69,1.37,0.76,1.95,0.35c0.59-0.41,0.58-1.36,0.23-1.92c-0.35-0.55-2.2-2.73-5.26-2.73c-3.01,0-6.09,2.26-6.09,6.25c0,4.16,3.31,6.22,6.27,6.22c2.96,0,4.74-2.23,5.11-2.71c0.31-0.4,0.52-1.42-0.11-1.91c-0.74-0.58-1.54-0.31-2.14,0.39c-0.6,0.7-1.46,1.77-2.71,1.82c-1.25,0.05-3.76-1-3.76-3.81c0-2.81,2.1-3.71,3.51-3.71C11.86,8.73,12.99,9.88,13.46,10.49L13.46,10.49z"/>
  <path fill="#F6911F" d="M31.27,11.03c-0.01,0-0.03,0-0.05,0c-0.01,0-0.02,0-0.03,0h-4.29c-0.01,0-0.01,0-0.02,0c-0.01,0-0.01,0-0.02,0H16.71c-0.74,0-1.35,0.6-1.35,1.35c0,0.74,0.6,1.34,1.35,1.34h8.74v4.45c0,0.8,0.65,1.45,1.44,1.45c0.8,0,1.44-0.65,1.44-1.45v-4.45h1.5v4.45c0,0.8,0.65,1.45,1.44,1.45c0.8,0,1.44-0.65,1.44-1.45v-5.7C32.72,11.68,32.07,11.03,31.27,11.03L31.27,11.03z"/>
  <path fill="#fff" d="M194.78,4.75h-0.66V4.51h1.6v0.24h-0.66v1.92h-0.28V4.75z"/>
  <path fill="#fff" d="M197.78,5.73c-0.02-0.3-0.04-0.66-0.03-0.93h-0.01c-0.07,0.25-0.16,0.52-0.27,0.82l-0.38,1.05h-0.21l-0.35-1.03c-0.1-0.3-0.19-0.58-0.25-0.84h-0.01c-0.01,0.27-0.02,0.63-0.04,0.95l-0.06,0.93h-0.27l0.15-2.16h0.36l0.37,1.04c0.09,0.27,0.16,0.5,0.22,0.73H197c0.05-0.22,0.13-0.46,0.23-0.73l0.38-1.04h0.36l0.13,2.16h-0.27L197.78,5.73z"/>
  <path fill-rule="evenodd" clip-rule="evenodd" fill="#0FAA14" d="M130.8,27.7c0.12,1.35-0.41,3.59-1.42,4.57c-0.23,0.22-0.48,0.4-0.76,0.55l-0.51-0.88c-0.2-0.34-0.4-0.55-0.6-0.68c0.33-0.2,0.55-0.5,0.73-0.92c0.21-0.49,0.5-1.63,0.42-2.17c-0.08-0.59-0.48-1.07-1.41-1.13c-0.41-0.03-0.84,0.01-1.24,0.11c-0.36,0.09-0.66,0.26-0.87,0.46c-0.51,0.48-0.83,1.68-0.87,2.36c-0.03,0.48,0.04,0.84,0.21,1.09c0.3,0.45,0.78,0.49,1.26,0.48l0.36,0c0.57,0,1.05,0.06,1.55,0.9l0.63,1.08c0.35,0.57,0.41,0.74,1.27,0.75h1.93l-0.38,1.86h-2.17c-0.6,0-1.43-0.09-1.92-0.93l-0.74-1.27c-0.29-0.46-0.28-0.55-0.79-0.58c-0.58-0.03-1.21-0.1-1.57-0.24c-0.88-0.34-1.59-1-1.69-2.19c-0.03-0.3-0.02-0.62,0.02-0.95c0.04-0.38,0.14-0.84,0.23-1.21c0.25-1,0.58-1.8,1.21-2.4c0.79-0.77,1.91-1.07,2.98-1.1c0.42-0.02,1.14,0,1.74,0.09C129.7,25.53,130.68,26.29,130.8,27.7z"/>
  <path fill-rule="evenodd" clip-rule="evenodd" fill="#0083CA" d="M139.49,24.45h1.36c0.18,0,0.29,0.15,0.26,0.32l-0.23,1.14c-0.04,0.18-0.21,0.32-0.39,0.32h-1.36c-0.18,0-0.29-0.15-0.26-0.32l0.23-1.14C139.14,24.6,139.31,24.45,139.49,24.45L139.49,24.45z M142.1,33.04h0.15l0.03-0.13l0.47-2.25l0.01,0.03c0.03,0.08,0.07,0.17,0.1,0.26c0.04,0.1,0.07,0.19,0.11,0.29l0,0c0.04,0.1,0.08,0.21,0.12,0.31c0.04,0.1,0.09,0.21,0.14,0.33l0,0c0.05,0.12,0.11,0.23,0.18,0.33c0.07,0.11,0.15,0.21,0.24,0.3l0,0c0.09,0.1,0.2,0.19,0.31,0.27c0.11,0.08,0.24,0.15,0.37,0.21l0,0c0.14,0.06,0.3,0.11,0.47,0.14c0.17,0.03,0.36,0.05,0.56,0.05c0.08,0,0.17,0,0.26-0.01c0.09-0.01,0.18-0.02,0.27-0.03l0.13-0.02l0.02-0.11l0.23-1.11l0.05-0.24c-0.21,0.04-0.35,0.09-0.56,0.05c-0.75-0.17-1.15-1.25-1.33-1.73l2.75-2.54l0.29-0.27h-0.44h-1.9h-0.08L145,27.22l-1.93,1.83c0.01-0.05,0.02-0.09,0.03-0.13c0.01-0.06,0.03-0.14,0.05-0.23l0,0l0.84-4.07l0.04-0.19h-0.23h-1.55h-0.15l-0.03,0.13l-1.72,8.29l-0.04,0.19h0.23H142.1L142.1,33.04z M133.74,33.19c-0.22,0-0.42-0.01-0.61-0.03c-0.19-0.02-0.37-0.05-0.53-0.1c-0.16-0.04-0.31-0.1-0.45-0.16l0,0c-0.14-0.06-0.26-0.14-0.37-0.22c-0.11-0.08-0.21-0.17-0.29-0.27c-0.08-0.1-0.15-0.21-0.2-0.33l0,0c-0.05-0.11-0.09-0.23-0.12-0.36c-0.03-0.12-0.04-0.25-0.05-0.38l0,0c0-0.04,0-0.09,0-0.14c0-0.05,0.01-0.1,0.01-0.16c0.01-0.06,0.02-0.13,0.03-0.19c0.01-0.05,0.02-0.13,0.04-0.22l0,0l0.69-3.33l0.03-0.13h0.15h1.55h0.23l-0.04,0.19l-0.7,3.37l0,0c-0.01,0.05-0.02,0.09-0.02,0.12c-0.01,0.04-0.01,0.07-0.01,0.11l0,0c0,0.03,0,0.07-0.01,0.1l0,0c0,0.03,0,0.06,0,0.09c0,0.1,0.02,0.18,0.05,0.25c0.03,0.07,0.07,0.12,0.13,0.17l0,0c0.05,0.04,0.12,0.08,0.21,0.1c0.1,0.03,0.22,0.04,0.37,0.04c0.1,0,0.2-0.01,0.29-0.02c0.09-0.01,0.16-0.03,0.23-0.05v0c0.07-0.02,0.13-0.05,0.19-0.09c0.06-0.03,0.11-0.07,0.16-0.12c0.05-0.04,0.09-0.09,0.13-0.15c0.04-0.06,0.07-0.12,0.11-0.19l0,0c0.03-0.07,0.06-0.15,0.08-0.22c0.02-0.08,0.05-0.16,0.06-0.25l0,0l0.7-3.36l0.03-0.13h0.15h1.55h0.23l-0.04,0.19l-0.77,3.73l0,0c-0.03,0.13-0.07,0.26-0.11,0.39c-0.05,0.13-0.1,0.25-0.16,0.37l0,0c-0.07,0.13-0.15,0.25-0.24,0.36c-0.1,0.11-0.21,0.22-0.33,0.31l0,0c-0.13,0.1-0.27,0.19-0.43,0.26c-0.16,0.08-0.33,0.14-0.52,0.2l0,0c-0.19,0.06-0.4,0.1-0.63,0.13C134.25,33.17,134,33.19,133.74,33.19L133.74,33.19zM137.46,32.85l1.16-5.54l0.03-0.13h0.15h1.55h0.23l-0.04,0.19l-1.16,5.54l-0.03,0.13h-0.15h-1.55h-0.23L137.46,32.85L137.46,32.85z M150.69,27.03c0.22,0,0.42,0.01,0.61,0.03c0.11,0.01,0.21,0.03,0.31,0.05l-0.31,1.53c-0.62-0.19-1.64-0.11-1.87,0.65c-0.02,0.08-0.05,0.16-0.06,0.25l0,0l-0.7,3.36l-0.03,0.13h-0.15h-1.55h-0.23l0.04-0.19l0.77-3.74l0,0c0.03-0.13,0.07-0.26,0.11-0.39c0.05-0.13,0.1-0.25,0.16-0.37l0,0c0.07-0.13,0.15-0.25,0.24-0.36c0.1-0.11,0.21-0.22,0.33-0.31l0,0c0.13-0.1,0.27-0.19,0.43-0.26c0.16-0.08,0.33-0.14,0.52-0.2l0,0c0.19-0.06,0.4-0.1,0.63-0.13C150.18,27.04,150.42,27.03,150.69,27.03z"/>
  <path fill="#fff" d="M116.67,26.99c0.39,0,0.62,0.07,0.62,0.07l1.92,5.62c0,0-0.18,0.07-0.56,0.07c-0.34,0-0.5-0.07-0.5-0.07l-0.43-1.28h-2.19l-0.43,1.28c0,0-0.18,0.07-0.5,0.07c-0.3,0-0.47-0.07-0.47-0.07l1.92-5.62C116.04,27.06,116.31,26.99,116.67,26.99z M116.61,28.06c0,0-0.08,0.41-0.24,0.89l-0.56,1.63h1.63l-0.54-1.63c-0.17-0.5-0.25-0.89-0.25-0.89H116.61z"/>
  <path fill="#fff" d="M157.05,26.91c0.89,0,1.39,0.28,1.39,0.28c0.02,0.33-0.12,0.56-0.3,0.76c0,0-0.46-0.17-0.97-0.17c-0.85,0-1.47,0.44-1.47,2.1s0.62,2.07,1.47,2.07c0.58,0,1.05-0.17,1.05-0.17c0.2,0.18,0.3,0.48,0.3,0.78c0,0-0.54,0.28-1.47,0.28c-1.59,0-2.43-1.03-2.43-2.96S155.46,26.91,157.05,26.91z"/>
  <path fill="#fff" d="M161.32,26.91c1.41,0,2.32,0.89,2.32,2.96s-0.88,2.96-2.32,2.96c-1.43,0-2.31-0.89-2.31-2.96C159.01,27.82,159.91,26.91,161.32,26.91z M161.32,27.76c-0.74,0-1.23,0.42-1.23,2.12c0,1.69,0.5,2.11,1.23,2.11c0.75,0,1.23-0.42,1.23-2.11C162.56,28.17,162.08,27.76,161.32,27.76z"/>
  <path fill="#fff" d="M169.4,26.99c0.39,0,0.67,0.07,0.67,0.07v5.62c0,0-0.18,0.07-0.5,0.07c-0.33,0-0.52-0.07-0.52-0.07v-1.75c0-0.88-0.03-1.99,0.06-2.65h-0.05c-0.14,0.5-0.56,1.34-0.88,2.03l-0.56,1.18c0,0-0.12,0.04-0.3,0.04c-0.18,0-0.26-0.04-0.26-0.04c-0.18-0.38-0.38-0.75-0.56-1.14c-0.34-0.7-0.78-1.56-0.91-2.07h-0.05c0.12,0.56,0.1,1.6,0.1,2.45v1.95c0,0-0.17,0.07-0.48,0.07c-0.28,0-0.46-0.07-0.46-0.07v-5.62c0,0,0.25-0.07,0.62-0.07c0.3,0,0.61,0.07,0.61,0.07l0.73,1.47c0.26,0.54,0.56,1.15,0.69,1.57h0.04c0.07-0.23,0.17-0.51,0.32-0.83c0.36-0.73,0.71-1.47,1.04-2.2C168.96,27.01,169.22,26.99,169.4,26.99z"/>
  <path fill="#fff" d="M172.39,32.68c0,0-0.17,0.07-0.5,0.07c-0.38,0-0.52-0.07-0.52-0.07v-5.7h2.15c1.08,0,1.79,0.73,1.79,1.8c0,1.07-0.71,1.8-1.79,1.8h-1.12V32.68z M173.36,29.74c0.56,0,0.86-0.35,0.86-0.95c0-0.6-0.3-0.95-0.86-0.95h-0.98v1.91H173.36z"/>
  <path fill="#fff" d="M177.82,26.99c0.39,0,0.62,0.07,0.62,0.07l1.92,5.62c0,0-0.18,0.07-0.56,0.07c-0.34,0-0.5-0.07-0.5-0.07l-0.43-1.28h-2.19l-0.43,1.28c0,0-0.18,0.07-0.5,0.07c-0.3,0-0.47-0.07-0.47-0.07l1.92-5.62C177.19,27.06,177.46,26.99,177.82,26.99z M177.76,28.06c0,0-0.08,0.41-0.24,0.89l-0.56,1.63h1.63l-0.54-1.63c-0.17-0.5-0.25-0.89-0.25-0.89H177.76z"/>
  <path fill="#fff" d="M182.56,29.46c-0.3-0.56-0.52-1.18-0.52-1.18h-0.03c0,0,0.06,0.63,0.06,1.47v2.93c0,0-0.15,0.07-0.48,0.07c-0.32,0-0.46-0.07-0.46-0.07v-5.62c0,0,0.22-0.07,0.62-0.07c0.41,0,0.61,0.07,0.61,0.07l1.65,3.2c0.31,0.58,0.54,1.2,0.54,1.2h0.03c0,0-0.06-0.67-0.06-1.49v-2.92c0,0,0.14-0.07,0.48-0.07c0.34,0,0.46,0.07,0.46,0.07v5.62c0,0-0.19,0.07-0.6,0.07c-0.4,0-0.62-0.07-0.62-0.07L182.56,29.46z"/>
  <path fill="#fff" d="M190.58,26.99c0.33,0,0.57,0.07,0.57,0.07l-1.98,3.29v2.33c0,0-0.17,0.07-0.5,0.07c-0.37,0-0.53-0.07-0.53-0.07v-2.31l-1.92-3.32c0,0,0.22-0.07,0.62-0.07c0.37,0,0.58,0.07,0.58,0.07l1.31,2.27l1.32-2.27C190.05,27.06,190.23,26.99,190.58,26.99z"/>
</svg>
